<svg xmlns="http://www.w3.org/2000/svg" width="64" height="64" fill="none" viewBox="0 0 64 64"><path fill="#fff" fill-rule="evenodd" d="m14.677 63 13.676-7.294-2.735-22.794zm13.22-12.309 24.618-11.853L32 6.015l-6.382 26.897m0 0 26.897 5.926Zm26.897 5.926 5.908-20.082-12.29 9.597m8.205 6.382L63 37.926l-4.577-19.17M32 6.015 4.647 1l20.97 31.912m-13.22-20.06L1 11.03l24.618 21.883" clip-rule="evenodd" style="fill:#fff;fill-opacity:1"/><path stroke="#ff8e47" stroke-linecap="round" stroke-linejoin="round" stroke-width="1.356" d="m25.618 32.912 2.735 22.794L14.677 63zm0 0L32 6.015m-6.382 26.897 26.897 5.926m-26.897-5.926L4.648 1 32 6.015m-6.382 26.897L1 11.029l11.397 1.824m15.5 37.838 24.618-11.853m0 0L32 6.015m20.515 32.823 5.908-20.082m0 0-12.29 9.597m12.29-9.597L63 37.926l-8.662-3.19" style="stroke:#ff8e47;stroke:color(display-p3 1 .5569 .2784);stroke-opacity:1"/></svg>